M48
; DRILL file {KiCad 9.0.2} date 2025-08-09T18:23:29-0400
; FORMAT={-:-/ absolute / metric / decimal}
; #@! TF.CreationDate,2025-08-09T18:23:29-04:00
; #@! TF.GenerationSoftware,Kicad,Pcbnew,9.0.2
; #@! TF.FileFunction,Plated,1,2,PTH
FMAT,2
METRIC
; #@! TA.AperFunction,Plated,PTH,ViaDrill
T1C0.300
; #@! TA.AperFunction,Plated,PTH,ComponentDrill
T2C0.700
; #@! TA.AperFunction,Plated,PTH,ComponentDrill
T3C0.800
; #@! TA.AperFunction,Plated,PTH,ComponentDrill
T4C1.000
; #@! TA.AperFunction,Plated,PTH,ComponentDrill
T5C1.500
%
G90
G05
T1
X30.0Y-84.706
X30.34Y-115.54
X31.0Y-82.471
X32.0Y-114.2
X33.373Y-26.83
X34.762Y-139.502
X38.234Y-83.083
X38.331Y-114.731
X39.015Y-118.157
X39.341Y-88.35
X40.8Y-117.22
X41.33Y-30.79
X41.415Y-86.66
X41.752Y-104.33
X44.898Y-25.5
X45.0Y-127.62
X46.575Y-40.42
X46.947Y-47.8
X47.849Y-30.245
X48.148Y-46.625
X48.289Y-23.68
X50.767Y-30.84
X51.032Y-62.046
X51.276Y-48.689
X52.5Y-28.487
X53.265Y-31.282
X54.6Y-128.0
X55.254Y-78.497
X56.613Y-65.887
X57.644Y-86.0
X57.8Y-102.2
X58.8Y-66.4
X59.352Y-85.125
X61.2Y-103.6
X63.211Y-45.898
X65.972Y-124.0
X75.011Y-82.471
X75.282Y-83.128
X75.282Y-86.581
X79.125Y-98.369
X80.306Y-81.025
X82.541Y-48.348
X85.092Y-29.977
X89.901Y-105.375
X91.06Y-124.723
X94.475Y-120.461
X97.246Y-80.838
X106.973Y-101.796
X107.06Y-62.359
X108.963Y-83.882
X112.941Y-136.126
X114.869Y-82.794
X118.88Y-135.2
X121.116Y-100.356
X121.221Y-140.251
X124.876Y-102.343
X126.81Y-50.676
X126.865Y-138.5
X129.328Y-106.477
X130.453Y-63.312
X130.547Y-126.443
X131.196Y-68.865
X132.917Y-31.36
X133.889Y-134.685
X134.639Y-86.695
X134.805Y-140.18
X136.811Y-44.714
X136.811Y-46.773
X138.5Y-136.089
X138.5Y-139.375
X138.799Y-125.0
X138.801Y-26.199
X138.801Y-102.343
X139.0Y-138.062
X139.843Y-47.648
X140.0Y-121.114
X140.212Y-38.648
X142.0Y-122.215
X142.222Y-63.217
X143.0Y-28.817
X144.768Y-30.655
X145.852Y-23.625
X146.184Y-31.36
X150.736Y-82.435
X159.11Y-100.278
X164.66Y-118.241
X166.649Y-102.343
X166.649Y-120.661
X167.925Y-63.312
X168.639Y-40.367
X172.195Y-65.969
X174.606Y-80.65
X174.89Y-98.816
X177.992Y-127.008
X178.203Y-100.33
X178.585Y-135.544
X178.885Y-104.031
X179.065Y-85.076
X180.28Y-106.73
X180.574Y-136.057
X182.259Y-124.574
X188.788Y-122.954
X189.191Y-104.125
X190.52Y-88.433
X190.52Y-102.062
X191.922Y-133.056
X192.64Y-80.838
X194.6Y-133.968
X196.487Y-140.634
X198.898Y-138.0
X203.811Y-117.658
X207.884Y-64.884
X208.218Y-78.495
X208.235Y-60.424
X210.193Y-79.944
X210.222Y-88.853
X210.412Y-48.689
X211.061Y-80.001
X212.232Y-116.195
X213.217Y-82.471
X216.052Y-64.886
X216.167Y-27.612
X216.379Y-84.02
X218.369Y-22.589
X218.758Y-30.62
X218.957Y-29.93
X219.898Y-23.8
X222.347Y-26.317
X222.347Y-100.86
X222.829Y-69.987
X224.149Y-70.093
X224.338Y-30.91
X226.325Y-100.354
X230.304Y-100.356
X230.587Y-80.484
X232.293Y-98.192
X233.97Y-108.516
X240.306Y-96.875
X242.239Y-79.937
X242.392Y-106.318
X244.66Y-119.288
X245.256Y-125.602
X246.2Y-68.102
X246.254Y-104.342
X246.388Y-122.398
X247.748Y-87.416
X250.071Y-116.134
X254.462Y-83.228
X256.163Y-80.757
X256.163Y-102.343
X259.404Y-136.283
X264.12Y-64.586
X268.099Y-82.733
X270.792Y-118.297
X272.464Y-96.472
X273.607Y-68.102
X274.066Y-30.126
X274.066Y-49.179
X278.045Y-136.126
X280.034Y-138.113
X284.082Y-101.2
X284.082Y-103.6
X298.536Y-106.102
X299.733Y-87.416
X300.235Y-83.0
X301.0Y-62.8
X301.915Y-26.618
X301.915Y-32.791
X309.872Y-30.091
X310.888Y-25.688
X310.938Y-47.012
X311.593Y-116.254
X311.861Y-80.295
X313.035Y-34.689
X313.296Y-118.771
X313.307Y-44.102
X313.43Y-32.87
X313.8Y-63.0
X313.826Y-23.826
X313.85Y-66.386
X314.04Y-84.934
X315.887Y-24.454
X315.887Y-29.701
X315.911Y-104.784
X315.916Y-22.589
X315.926Y-31.157
X317.281Y-23.892
X317.53Y-23.283
X317.829Y-98.682
X318.117Y-22.681
X318.167Y-32.844
X319.0Y-88.68
X320.478Y-71.976
X321.938Y-48.82
X322.1Y-26.508
X322.183Y-72.672
X323.671Y-68.436
X325.366Y-66.257
X325.406Y-67.293
X325.651Y-63.041
X326.0Y-88.0
X327.775Y-62.599
X327.972Y-66.376
X328.064Y-48.979
X328.231Y-50.229
X328.669Y-84.458
X329.2Y-82.969
X329.269Y-68.235
X329.764Y-138.113
X329.816Y-40.276
X330.183Y-82.81
X330.363Y-51.4
X331.392Y-45.765
X331.426Y-103.195
X331.443Y-100.358
X331.657Y-82.265
X332.357Y-66.618
X333.615Y-40.613
X333.838Y-117.969
X334.019Y-50.578
X334.601Y-121.0
X335.018Y-96.22
X335.212Y-23.037
X336.368Y-32.858
X336.368Y-53.179
X336.932Y-50.598
X337.772Y-75.072
X339.396Y-54.572
X339.599Y-74.698
X339.658Y-73.685
X339.753Y-75.508
X341.6Y-45.4
X342.222Y-48.128
X343.6Y-57.212
X344.899Y-40.139
X345.677Y-26.688
X346.466Y-57.212
X347.462Y-89.6
X348.008Y-54.461
X348.238Y-119.387
X348.284Y-45.048
X348.285Y-40.944
X348.361Y-40.183
X348.424Y-39.509
X348.562Y-133.781
X348.64Y-109.382
X348.721Y-94.677
X348.764Y-137.468
X348.8Y-56.693
X349.155Y-104.295
X349.48Y-112.358
X350.144Y-128.564
X350.214Y-91.148
X350.241Y-110.837
X350.289Y-127.65
X350.492Y-110.206
X350.582Y-104.33
X350.924Y-29.8
X351.562Y-108.081
X351.704Y-109.759
X352.26Y-110.859
X353.185Y-104.86
X353.334Y-94.648
X354.03Y-108.45
X354.031Y-92.333
X355.0Y-140.602
X355.202Y-123.704
X355.875Y-136.801
X356.04Y-92.369
X356.467Y-108.424
X356.472Y-123.704
X357.956Y-106.2
T2
X339.66Y-138.8
X339.66Y-142.4
X344.74Y-138.8
X344.74Y-142.4
T3
X48.1Y-35.48
X48.1Y-43.1
X48.1Y-54.53
X48.1Y-62.15
X50.481Y-130.73
X50.481Y-138.35
X52.862Y-73.58
X52.862Y-81.2
X55.244Y-92.63
X55.244Y-100.25
X60.006Y-111.68
X60.006Y-119.3
X67.15Y-35.48
X67.15Y-43.1
X67.15Y-54.53
X67.15Y-62.15
X74.294Y-130.73
X74.294Y-138.35
X76.675Y-73.58
X76.675Y-81.2
X81.438Y-92.63
X81.438Y-100.25
X86.2Y-35.48
X86.2Y-43.1
X86.2Y-54.53
X86.2Y-62.15
X90.962Y-111.68
X90.962Y-119.3
X95.725Y-73.58
X95.725Y-81.2
X98.106Y-130.73
X98.106Y-138.35
X100.487Y-92.63
X100.487Y-100.25
X105.25Y-35.48
X105.25Y-43.1
X105.25Y-54.53
X105.25Y-62.15
X110.012Y-111.68
X110.012Y-119.3
X114.775Y-73.58
X114.775Y-81.2
X119.537Y-92.63
X119.537Y-100.25
X124.3Y-35.48
X124.3Y-43.1
X124.3Y-54.53
X124.3Y-62.15
X129.062Y-111.68
X129.062Y-119.3
X133.825Y-73.58
X133.825Y-81.2
X138.588Y-92.63
X138.588Y-100.25
X143.35Y-35.48
X143.35Y-43.1
X143.35Y-54.53
X143.35Y-62.15
X148.112Y-111.68
X148.112Y-119.3
X152.875Y-73.58
X152.875Y-81.2
X157.637Y-92.63
X157.637Y-100.25
X162.4Y-35.48
X162.4Y-43.1
X162.4Y-54.53
X162.4Y-62.15
X167.162Y-111.68
X167.162Y-119.3
X169.544Y-130.73
X169.544Y-138.35
X171.925Y-73.58
X171.925Y-81.2
X176.688Y-92.63
X176.688Y-100.25
X181.45Y-35.48
X181.45Y-43.1
X181.45Y-54.53
X181.45Y-62.15
X186.213Y-111.68
X186.213Y-119.3
X190.975Y-73.58
X190.975Y-81.2
X195.737Y-92.63
X195.737Y-100.25
X200.5Y-35.48
X200.5Y-43.1
X200.5Y-54.53
X200.5Y-62.15
X205.262Y-111.68
X205.262Y-119.3
X210.025Y-73.58
X210.025Y-81.2
X214.787Y-92.63
X214.787Y-100.25
X219.55Y-35.48
X219.55Y-43.1
X219.55Y-54.53
X219.55Y-62.15
X224.312Y-111.68
X224.312Y-119.3
X229.075Y-73.58
X229.075Y-81.2
X233.837Y-92.63
X233.837Y-100.25
X238.6Y-35.48
X238.6Y-43.1
X238.6Y-54.53
X238.6Y-62.15
X238.6Y-130.73
X238.6Y-138.35
X243.362Y-111.68
X243.362Y-119.3
X248.125Y-73.58
X248.125Y-81.2
X252.887Y-92.63
X252.887Y-100.25
X257.65Y-35.48
X257.65Y-43.1
X257.65Y-54.53
X257.65Y-62.15
X257.65Y-130.73
X257.65Y-138.35
X262.412Y-111.68
X262.412Y-119.3
X267.175Y-73.58
X267.175Y-81.2
X271.938Y-92.63
X271.938Y-100.25
X276.7Y-35.48
X276.7Y-43.1
X276.7Y-54.53
X276.7Y-62.15
X276.7Y-130.73
X276.7Y-138.35
X286.225Y-73.58
X286.225Y-81.2
X288.606Y-111.68
X288.606Y-119.3
X295.75Y-35.48
X295.75Y-43.1
X295.75Y-130.73
X295.75Y-138.35
X302.894Y-92.63
X302.894Y-100.25
X305.275Y-54.53
X305.275Y-62.15
X310.037Y-73.58
X310.037Y-81.2
X314.8Y-35.48
X314.8Y-43.1
X314.8Y-111.68
X314.8Y-119.3
X314.8Y-130.73
X314.8Y-138.35
X333.85Y-35.48
X333.85Y-43.1
X333.85Y-54.53
X333.85Y-62.15
X333.85Y-73.58
X333.85Y-81.2
X333.85Y-111.68
X333.85Y-119.3
X333.85Y-130.73
X333.85Y-138.35
X334.0Y-84.19
X334.0Y-91.81
X334.0Y-94.19
X334.0Y-101.81
T4
X336.75Y-79.5
X336.75Y-84.5
X337.935Y-23.967
X337.935Y-26.508
X337.935Y-29.047
X337.935Y-31.587
X337.935Y-34.127
X337.935Y-36.667
X337.935Y-39.207
X337.935Y-41.747
X337.935Y-44.288
X337.935Y-46.828
X337.935Y-49.367
X337.935Y-51.907
X337.935Y-54.447
X337.935Y-56.987
X337.935Y-59.527
X337.935Y-62.067
X337.935Y-64.608
X337.935Y-67.147
X337.935Y-69.688
X337.935Y-72.227
X341.0Y-130.0
X343.54Y-130.0
X346.08Y-130.0
X348.62Y-130.0
X351.25Y-79.5
X351.25Y-82.0
X351.25Y-84.5
X355.715Y-23.967
X355.715Y-26.508
X355.715Y-29.047
X355.715Y-31.587
X355.715Y-34.127
X355.715Y-36.667
X355.715Y-39.207
X355.715Y-41.747
X355.715Y-44.288
X355.715Y-46.828
X355.715Y-49.367
X355.715Y-51.907
X355.715Y-54.447
X355.715Y-56.987
X355.715Y-59.527
X355.715Y-62.067
X355.715Y-64.608
X355.715Y-67.147
X355.715Y-69.688
X355.715Y-72.227
T5
X34.29Y-35.56
X34.29Y-54.61
X36.671Y-130.81
X39.052Y-73.66
X40.64Y-33.02
X40.64Y-52.07
X41.434Y-92.71
X43.021Y-128.27
X45.402Y-71.12
X46.196Y-111.76
X47.784Y-90.17
X52.546Y-109.22
X53.34Y-35.56
X53.34Y-54.61
X59.69Y-33.02
X59.69Y-52.07
X60.484Y-130.81
X62.865Y-73.66
X66.834Y-128.27
X67.627Y-92.71
X69.215Y-71.12
X72.39Y-35.56
X72.39Y-54.61
X73.977Y-90.17
X77.153Y-111.76
X78.74Y-33.02
X78.74Y-52.07
X81.915Y-73.66
X83.502Y-109.22
X84.296Y-130.81
X86.677Y-92.71
X88.265Y-71.12
X90.646Y-128.27
X91.44Y-35.56
X91.44Y-54.61
X93.027Y-90.17
X96.203Y-111.76
X97.79Y-33.02
X97.79Y-52.07
X100.965Y-73.66
X102.552Y-109.22
X105.727Y-92.71
X107.315Y-71.12
X110.49Y-35.56
X110.49Y-54.61
X112.078Y-90.17
X115.252Y-111.76
X116.84Y-33.02
X116.84Y-52.07
X120.015Y-73.66
X121.602Y-109.22
X124.777Y-92.71
X126.365Y-71.12
X129.54Y-35.56
X129.54Y-54.61
X131.127Y-90.17
X134.302Y-111.76
X135.89Y-33.02
X135.89Y-52.07
X139.065Y-73.66
X140.653Y-109.22
X143.827Y-92.71
X145.415Y-71.12
X148.59Y-35.56
X148.59Y-54.61
X150.177Y-90.17
X153.352Y-111.76
X154.94Y-33.02
X154.94Y-52.07
X155.734Y-130.81
X158.115Y-73.66
X159.702Y-109.22
X162.084Y-128.27
X162.877Y-92.71
X164.465Y-71.12
X167.64Y-35.56
X167.64Y-54.61
X169.227Y-90.17
X172.403Y-111.76
X173.99Y-33.02
X173.99Y-52.07
X177.165Y-73.66
X178.752Y-109.22
X181.927Y-92.71
X183.515Y-71.12
X186.69Y-35.56
X186.69Y-54.61
X188.278Y-90.17
X191.452Y-111.76
X193.04Y-33.02
X193.04Y-52.07
X196.215Y-73.66
X197.802Y-109.22
X200.977Y-92.71
X202.565Y-71.12
X205.74Y-35.56
X205.74Y-54.61
X207.327Y-90.17
X210.502Y-111.76
X212.09Y-33.02
X212.09Y-52.07
X215.265Y-73.66
X216.852Y-109.22
X220.028Y-92.71
X221.615Y-71.12
X224.79Y-35.56
X224.79Y-54.61
X224.79Y-130.81
X226.377Y-90.17
X229.552Y-111.76
X231.14Y-33.02
X231.14Y-52.07
X231.14Y-128.27
X234.315Y-73.66
X235.903Y-109.22
X239.077Y-92.71
X240.665Y-71.12
X243.84Y-35.56
X243.84Y-54.61
X243.84Y-130.81
X245.427Y-90.17
X248.602Y-111.76
X250.19Y-33.02
X250.19Y-52.07
X250.19Y-128.27
X253.365Y-73.66
X254.952Y-109.22
X258.127Y-92.71
X259.715Y-71.12
X262.89Y-35.56
X262.89Y-54.61
X262.89Y-130.81
X264.477Y-90.17
X269.24Y-33.02
X269.24Y-52.07
X269.24Y-128.27
X272.415Y-73.66
X274.796Y-111.76
X278.765Y-71.12
X281.146Y-109.22
X281.94Y-35.56
X281.94Y-130.81
X288.29Y-33.02
X288.29Y-128.27
X289.084Y-92.71
X291.465Y-54.61
X295.434Y-90.17
X296.227Y-73.66
X297.815Y-52.07
X300.99Y-35.56
X300.99Y-111.76
X300.99Y-130.81
X302.577Y-71.12
X307.34Y-33.02
X307.34Y-109.22
X307.34Y-128.27
X320.04Y-35.56
X320.04Y-54.61
X320.04Y-73.66
X320.04Y-92.71
X320.04Y-111.76
X320.04Y-130.81
X326.39Y-33.02
X326.39Y-52.07
X326.39Y-71.12
X326.39Y-90.17
X326.39Y-109.22
X326.39Y-128.27
T5
G00X344.4Y-76.4
M15
G01X343.1Y-76.4
M16
G05
G00X344.4Y-87.6
M15
G01X343.1Y-87.6
M16
G05
M30
