%TF.GenerationSoftware,KiCad,Pcbnew,9.0.2*%
%TF.CreationDate,2025-08-09T18:23:32-04:00*%
%TF.ProjectId,Riptide,52697074-6964-4652-9e6b-696361645f70,rev?*%
%TF.SameCoordinates,Original*%
%TF.FileFunction,Paste,Top*%
%TF.FilePolarity,Positive*%
%FSLAX46Y46*%
G04 Gerber Fmt 4.6, Leading zero omitted, Abs format (unit mm)*
G04 Created by KiCad (PCBNEW 9.0.2) date 2025-08-09 18:23:32*
%MOMM*%
%LPD*%
G01*
G04 APERTURE LIST*
%ADD10R,1.600000X0.850000*%
%ADD11R,0.850000X1.600000*%
G04 APERTURE END LIST*
D10*
%TO.C,LED45*%
X286250000Y-85000000D03*
X286250000Y-86750000D03*
X289750000Y-86750000D03*
X289750000Y-85000000D03*
%TD*%
%TO.C,LED25*%
X122250000Y-46625000D03*
X122250000Y-48375000D03*
X125750000Y-48375000D03*
X125750000Y-46625000D03*
%TD*%
%TO.C,LED7*%
X144750000Y-25375000D03*
X144750000Y-23625000D03*
X141250000Y-23625000D03*
X141250000Y-25375000D03*
%TD*%
%TO.C,LED37*%
X93500000Y-66000000D03*
X93500000Y-67750000D03*
X97000000Y-67750000D03*
X97000000Y-66000000D03*
%TD*%
%TO.C,LED46*%
X312500000Y-85000000D03*
X312500000Y-86750000D03*
X316000000Y-86750000D03*
X316000000Y-85000000D03*
%TD*%
%TO.C,LED48*%
X287250000Y-106125000D03*
X287250000Y-107875000D03*
X290750000Y-107875000D03*
X290750000Y-106125000D03*
%TD*%
%TO.C,LED59*%
X236250000Y-123125000D03*
X236250000Y-124875000D03*
X239750000Y-124875000D03*
X239750000Y-123125000D03*
%TD*%
%TO.C,LED11*%
X119750000Y-137625000D03*
X119750000Y-139375000D03*
X123250000Y-139375000D03*
X123250000Y-137625000D03*
%TD*%
%TO.C,LED53*%
X88750000Y-103625000D03*
X88750000Y-105375000D03*
X92250000Y-105375000D03*
X92250000Y-103625000D03*
%TD*%
%TO.C,LED44*%
X250750000Y-84625000D03*
X250750000Y-86375000D03*
X254250000Y-86375000D03*
X254250000Y-84625000D03*
%TD*%
%TO.C,LED26*%
X160250000Y-46625000D03*
X160250000Y-48375000D03*
X163750000Y-48375000D03*
X163750000Y-46625000D03*
%TD*%
%TO.C,LED16*%
X293500000Y-27500000D03*
X293500000Y-29250000D03*
X297000000Y-29250000D03*
X297000000Y-27500000D03*
%TD*%
D11*
%TO.C,LED4*%
X355125000Y-95750000D03*
X356875000Y-95750000D03*
X356875000Y-92250000D03*
X355125000Y-92250000D03*
%TD*%
D10*
%TO.C,LED33*%
X246250000Y-65625000D03*
X246250000Y-67375000D03*
X249750000Y-67375000D03*
X249750000Y-65625000D03*
%TD*%
%TO.C,LED61*%
X312750000Y-123125000D03*
X312750000Y-124875000D03*
X316250000Y-124875000D03*
X316250000Y-123125000D03*
%TD*%
%TO.C,LED32*%
X287250000Y-68325000D03*
X287250000Y-70075000D03*
X290750000Y-70075000D03*
X290750000Y-68325000D03*
%TD*%
%TO.C,LED55*%
X50000000Y-126325000D03*
X50000000Y-128075000D03*
X53500000Y-128075000D03*
X53500000Y-126325000D03*
%TD*%
%TO.C,LED22*%
X65000000Y-27500000D03*
X65000000Y-29250000D03*
X68500000Y-29250000D03*
X68500000Y-27500000D03*
%TD*%
%TO.C,LED49*%
X240750000Y-103625000D03*
X240750000Y-105375000D03*
X244250000Y-105375000D03*
X244250000Y-103625000D03*
%TD*%
%TO.C,LED36*%
X131500000Y-66000000D03*
X131500000Y-67750000D03*
X135000000Y-67750000D03*
X135000000Y-66000000D03*
%TD*%
%TO.C,LED14*%
X196500000Y-138000000D03*
X196500000Y-139750000D03*
X200000000Y-139750000D03*
X200000000Y-138000000D03*
%TD*%
D11*
%TO.C,LED9*%
X31875000Y-82822500D03*
X30125000Y-82822500D03*
X30125000Y-86322500D03*
X31875000Y-86322500D03*
%TD*%
D10*
%TO.C,LED42*%
X174250000Y-85125000D03*
X174250000Y-86875000D03*
X177750000Y-86875000D03*
X177750000Y-85125000D03*
%TD*%
%TO.C,LED23*%
X45750000Y-46625000D03*
X45750000Y-48375000D03*
X49250000Y-48375000D03*
X49250000Y-46625000D03*
%TD*%
%TO.C,LED24*%
X83750000Y-46625000D03*
X83750000Y-48375000D03*
X87250000Y-48375000D03*
X87250000Y-46625000D03*
%TD*%
%TO.C,LED18*%
X217750000Y-27875000D03*
X217750000Y-29625000D03*
X221250000Y-29625000D03*
X221250000Y-27875000D03*
%TD*%
%TO.C,LED30*%
X312500000Y-46625000D03*
X312500000Y-48375000D03*
X316000000Y-48375000D03*
X316000000Y-46625000D03*
%TD*%
%TO.C,LED43*%
X213000000Y-85000000D03*
X213000000Y-86750000D03*
X216500000Y-86750000D03*
X216500000Y-85000000D03*
%TD*%
%TO.C,LED28*%
X236500000Y-46500000D03*
X236500000Y-48250000D03*
X240000000Y-48250000D03*
X240000000Y-46500000D03*
%TD*%
%TO.C,LED15*%
X330500000Y-27500000D03*
X330500000Y-29250000D03*
X334000000Y-29250000D03*
X334000000Y-27500000D03*
%TD*%
D11*
%TO.C,LED1*%
X355000000Y-139500000D03*
X356750000Y-139500000D03*
X356750000Y-136000000D03*
X355000000Y-136000000D03*
%TD*%
D10*
%TO.C,LED47*%
X330500000Y-104000000D03*
X330500000Y-105750000D03*
X334000000Y-105750000D03*
X334000000Y-104000000D03*
%TD*%
%TO.C,LED31*%
X330500000Y-66000000D03*
X330500000Y-67750000D03*
X334000000Y-67750000D03*
X334000000Y-66000000D03*
%TD*%
D11*
%TO.C,LED3*%
X355125000Y-110250000D03*
X356875000Y-110250000D03*
X356875000Y-106750000D03*
X355125000Y-106750000D03*
%TD*%
%TO.C,LED2*%
X355000000Y-125000000D03*
X356750000Y-125000000D03*
X356750000Y-121500000D03*
X355000000Y-121500000D03*
%TD*%
D10*
%TO.C,LED8*%
X49500000Y-25500000D03*
X49500000Y-23750000D03*
X46000000Y-23750000D03*
X46000000Y-25500000D03*
%TD*%
%TO.C,LED17*%
X255250000Y-27625000D03*
X255250000Y-29375000D03*
X258750000Y-29375000D03*
X258750000Y-27625000D03*
%TD*%
%TO.C,LED54*%
X59000000Y-102125000D03*
X59000000Y-103875000D03*
X62500000Y-103875000D03*
X62500000Y-102125000D03*
%TD*%
%TO.C,LED20*%
X141250000Y-27875000D03*
X141250000Y-29625000D03*
X144750000Y-29625000D03*
X144750000Y-27875000D03*
%TD*%
%TO.C,LED39*%
X54750000Y-85125000D03*
X54750000Y-86875000D03*
X58250000Y-86875000D03*
X58250000Y-85125000D03*
%TD*%
%TO.C,LED58*%
X183750000Y-123125000D03*
X183750000Y-124875000D03*
X187250000Y-124875000D03*
X187250000Y-123125000D03*
%TD*%
%TO.C,LED6*%
X221250000Y-25375000D03*
X221250000Y-23625000D03*
X217750000Y-23625000D03*
X217750000Y-25375000D03*
%TD*%
%TO.C,LED13*%
X181500000Y-138000000D03*
X181500000Y-139750000D03*
X185000000Y-139750000D03*
X185000000Y-138000000D03*
%TD*%
%TO.C,LED60*%
X274750000Y-123125000D03*
X274750000Y-124875000D03*
X278250000Y-124875000D03*
X278250000Y-123125000D03*
%TD*%
%TO.C,LED29*%
X274500000Y-46500000D03*
X274500000Y-48250000D03*
X278000000Y-48250000D03*
X278000000Y-46500000D03*
%TD*%
%TO.C,LED35*%
X170000000Y-66000000D03*
X170000000Y-67750000D03*
X173500000Y-67750000D03*
X173500000Y-66000000D03*
%TD*%
%TO.C,LED19*%
X179250000Y-27625000D03*
X179250000Y-29375000D03*
X182750000Y-29375000D03*
X182750000Y-27625000D03*
%TD*%
%TO.C,LED50*%
X203250000Y-104125000D03*
X203250000Y-105875000D03*
X206750000Y-105875000D03*
X206750000Y-104125000D03*
%TD*%
%TO.C,LED27*%
X198500000Y-47000000D03*
X198500000Y-48750000D03*
X202000000Y-48750000D03*
X202000000Y-47000000D03*
%TD*%
%TO.C,LED56*%
X98250000Y-123125000D03*
X98250000Y-124875000D03*
X101750000Y-124875000D03*
X101750000Y-123125000D03*
%TD*%
%TO.C,LED51*%
X165250000Y-104125000D03*
X165250000Y-105875000D03*
X168750000Y-105875000D03*
X168750000Y-104125000D03*
%TD*%
%TO.C,LED41*%
X136250000Y-85125000D03*
X136250000Y-86875000D03*
X139750000Y-86875000D03*
X139750000Y-85125000D03*
%TD*%
%TO.C,LED40*%
X98000000Y-85000000D03*
X98000000Y-86750000D03*
X101500000Y-86750000D03*
X101500000Y-85000000D03*
%TD*%
%TO.C,LED21*%
X103500000Y-27500000D03*
X103500000Y-29250000D03*
X107000000Y-29250000D03*
X107000000Y-27500000D03*
%TD*%
%TO.C,LED12*%
X134000000Y-137625000D03*
X134000000Y-139375000D03*
X137500000Y-139375000D03*
X137500000Y-137625000D03*
%TD*%
%TO.C,LED52*%
X127500000Y-104000000D03*
X127500000Y-105750000D03*
X131000000Y-105750000D03*
X131000000Y-104000000D03*
%TD*%
%TO.C,LED57*%
X145750000Y-123125000D03*
X145750000Y-124875000D03*
X149250000Y-124875000D03*
X149250000Y-123125000D03*
%TD*%
%TO.C,LED38*%
X55250000Y-65625000D03*
X55250000Y-67375000D03*
X58750000Y-67375000D03*
X58750000Y-65625000D03*
%TD*%
D11*
%TO.C,LED10*%
X32000000Y-113212500D03*
X30250000Y-113212500D03*
X30250000Y-116712500D03*
X32000000Y-116712500D03*
%TD*%
D10*
%TO.C,LED34*%
X207750000Y-65625000D03*
X207750000Y-67375000D03*
X211250000Y-67375000D03*
X211250000Y-65625000D03*
%TD*%
%TO.C,LED5*%
X316000000Y-25375000D03*
X316000000Y-23625000D03*
X312500000Y-23625000D03*
X312500000Y-25375000D03*
%TD*%
M02*
